<mxfile host="app.diagrams.net" modified="2023-06-04T12:06:13.838Z" agent="Mozilla/5.0 (Windows NT 10.0; Win64; x64) AppleWebKit/537.36 (KHTML, like Gecko) Chrome/114.0.0.0 Safari/537.36" etag="spO-8BNoi6f0rIr-4zBC" version="21.3.7" type="github" pages="4">
  <diagram name="MDM Guild Delivery" id="kcEuqjkQgL32cvvFv_7w">
    <mxGraphModel dx="1434" dy="739" grid="1" gridSize="10" guides="1" tooltips="1" connect="1" arrows="1" fold="1" page="1" pageScale="1" pageWidth="1100" pageHeight="850" math="0" shadow="0">
      <root>
        <mxCell id="0" />
        <mxCell id="1" parent="0" />
        <mxCell id="gFP8oRgVTRER96iRmuCu-1" value="CAI :Lead" style="shape=umlActor;verticalLabelPosition=bottom;verticalAlign=top;html=1;outlineConnect=0;fillColor=#ffe6cc;strokeColor=#d79b00;" vertex="1" parent="1">
          <mxGeometry x="190" y="210" width="30" height="60" as="geometry" />
        </mxCell>
        <mxCell id="gFP8oRgVTRER96iRmuCu-2" value="CDI Lead" style="shape=umlActor;verticalLabelPosition=bottom;verticalAlign=top;html=1;outlineConnect=0;fillColor=#dae8fc;strokeColor=#6c8ebf;" vertex="1" parent="1">
          <mxGeometry x="290" y="210" width="30" height="60" as="geometry" />
        </mxCell>
        <mxCell id="gFP8oRgVTRER96iRmuCu-3" value="MDM Lead" style="shape=umlActor;verticalLabelPosition=bottom;verticalAlign=top;html=1;outlineConnect=0;fillColor=#d5e8d4;strokeColor=#82b366;" vertex="1" parent="1">
          <mxGeometry x="410" y="210" width="30" height="60" as="geometry" />
        </mxCell>
        <mxCell id="gFP8oRgVTRER96iRmuCu-4" value="&lt;font color=&quot;#000000&quot;&gt;Migration Lead&lt;/font&gt;" style="shape=umlActor;verticalLabelPosition=bottom;verticalAlign=top;html=1;outlineConnect=0;fillColor=#1ba1e2;fontColor=#ffffff;strokeColor=#006EAF;" vertex="1" parent="1">
          <mxGeometry x="520" y="210" width="30" height="60" as="geometry" />
        </mxCell>
        <mxCell id="gFP8oRgVTRER96iRmuCu-5" value="&lt;font color=&quot;#000000&quot;&gt;MDM Test Lead&lt;/font&gt;" style="shape=umlActor;verticalLabelPosition=bottom;verticalAlign=top;html=1;outlineConnect=0;fillColor=#d80073;fontColor=#ffffff;strokeColor=#A50040;" vertex="1" parent="1">
          <mxGeometry x="640" y="210" width="30" height="60" as="geometry" />
        </mxCell>
        <mxCell id="gFP8oRgVTRER96iRmuCu-8" value="Lead Business Analyst" style="shape=umlActor;verticalLabelPosition=bottom;verticalAlign=top;html=1;outlineConnect=0;" vertex="1" parent="1">
          <mxGeometry x="270" y="90" width="30" height="60" as="geometry" />
        </mxCell>
        <mxCell id="gFP8oRgVTRER96iRmuCu-9" value="Scrum Master" style="shape=umlActor;verticalLabelPosition=bottom;verticalAlign=top;html=1;outlineConnect=0;" vertex="1" parent="1">
          <mxGeometry x="550" y="90" width="30" height="60" as="geometry" />
        </mxCell>
        <mxCell id="gFP8oRgVTRER96iRmuCu-13" value="MDM Architect" style="shape=umlActor;verticalLabelPosition=bottom;verticalAlign=top;html=1;outlineConnect=0;fillColor=#d5e8d4;strokeColor=#82b366;" vertex="1" parent="1">
          <mxGeometry x="410" y="90" width="30" height="60" as="geometry" />
        </mxCell>
        <mxCell id="gFP8oRgVTRER96iRmuCu-29" value="" style="group" vertex="1" connectable="0" parent="1">
          <mxGeometry x="160" y="330" width="60" height="80" as="geometry" />
        </mxCell>
        <mxCell id="gFP8oRgVTRER96iRmuCu-26" value="" style="group" vertex="1" connectable="0" parent="gFP8oRgVTRER96iRmuCu-29">
          <mxGeometry width="56" height="50" as="geometry" />
        </mxCell>
        <mxCell id="gFP8oRgVTRER96iRmuCu-14" value="" style="shape=umlActor;verticalLabelPosition=bottom;verticalAlign=top;html=1;outlineConnect=0;" vertex="1" parent="gFP8oRgVTRER96iRmuCu-26">
          <mxGeometry width="20" height="30" as="geometry" />
        </mxCell>
        <mxCell id="gFP8oRgVTRER96iRmuCu-24" value="" style="shape=umlActor;verticalLabelPosition=bottom;verticalAlign=top;html=1;outlineConnect=0;" vertex="1" parent="gFP8oRgVTRER96iRmuCu-26">
          <mxGeometry x="19" y="10" width="20" height="30" as="geometry" />
        </mxCell>
        <mxCell id="gFP8oRgVTRER96iRmuCu-25" value="" style="shape=umlActor;verticalLabelPosition=bottom;verticalAlign=top;html=1;outlineConnect=0;" vertex="1" parent="gFP8oRgVTRER96iRmuCu-26">
          <mxGeometry x="36" y="20" width="20" height="30" as="geometry" />
        </mxCell>
        <mxCell id="gFP8oRgVTRER96iRmuCu-27" value="Analyst" style="text;html=1;strokeColor=none;fillColor=none;align=center;verticalAlign=middle;whiteSpace=wrap;rounded=0;" vertex="1" parent="gFP8oRgVTRER96iRmuCu-29">
          <mxGeometry y="50" width="60" height="30" as="geometry" />
        </mxCell>
        <mxCell id="gFP8oRgVTRER96iRmuCu-37" value="" style="group" vertex="1" connectable="0" parent="1">
          <mxGeometry x="270" y="334" width="60" height="80" as="geometry" />
        </mxCell>
        <mxCell id="gFP8oRgVTRER96iRmuCu-38" value="" style="group" vertex="1" connectable="0" parent="gFP8oRgVTRER96iRmuCu-37">
          <mxGeometry width="56" height="50" as="geometry" />
        </mxCell>
        <mxCell id="gFP8oRgVTRER96iRmuCu-39" value="" style="shape=umlActor;verticalLabelPosition=bottom;verticalAlign=top;html=1;outlineConnect=0;fillColor=#ffe6cc;strokeColor=#d79b00;" vertex="1" parent="gFP8oRgVTRER96iRmuCu-38">
          <mxGeometry width="20" height="30" as="geometry" />
        </mxCell>
        <mxCell id="gFP8oRgVTRER96iRmuCu-40" value="" style="shape=umlActor;verticalLabelPosition=bottom;verticalAlign=top;html=1;outlineConnect=0;fillColor=#ffe6cc;strokeColor=#d79b00;" vertex="1" parent="gFP8oRgVTRER96iRmuCu-38">
          <mxGeometry x="19" y="10" width="20" height="30" as="geometry" />
        </mxCell>
        <mxCell id="gFP8oRgVTRER96iRmuCu-41" value="" style="shape=umlActor;verticalLabelPosition=bottom;verticalAlign=top;html=1;outlineConnect=0;fillColor=#ffe6cc;strokeColor=#d79b00;" vertex="1" parent="gFP8oRgVTRER96iRmuCu-38">
          <mxGeometry x="36" y="20" width="20" height="30" as="geometry" />
        </mxCell>
        <mxCell id="gFP8oRgVTRER96iRmuCu-42" value="CAI Specialists" style="text;html=1;strokeColor=none;fillColor=none;align=center;verticalAlign=middle;whiteSpace=wrap;rounded=0;" vertex="1" parent="gFP8oRgVTRER96iRmuCu-37">
          <mxGeometry y="50" width="60" height="30" as="geometry" />
        </mxCell>
        <mxCell id="gFP8oRgVTRER96iRmuCu-43" value="" style="group" vertex="1" connectable="0" parent="1">
          <mxGeometry x="398" y="333" width="60" height="80" as="geometry" />
        </mxCell>
        <mxCell id="gFP8oRgVTRER96iRmuCu-44" value="" style="group" vertex="1" connectable="0" parent="gFP8oRgVTRER96iRmuCu-43">
          <mxGeometry width="56" height="50" as="geometry" />
        </mxCell>
        <mxCell id="gFP8oRgVTRER96iRmuCu-45" value="" style="shape=umlActor;verticalLabelPosition=bottom;verticalAlign=top;html=1;outlineConnect=0;fillColor=#dae8fc;strokeColor=#6c8ebf;" vertex="1" parent="gFP8oRgVTRER96iRmuCu-44">
          <mxGeometry width="20" height="30" as="geometry" />
        </mxCell>
        <mxCell id="gFP8oRgVTRER96iRmuCu-46" value="" style="shape=umlActor;verticalLabelPosition=bottom;verticalAlign=top;html=1;outlineConnect=0;fillColor=#dae8fc;strokeColor=#6c8ebf;" vertex="1" parent="gFP8oRgVTRER96iRmuCu-44">
          <mxGeometry x="19" y="10" width="20" height="30" as="geometry" />
        </mxCell>
        <mxCell id="gFP8oRgVTRER96iRmuCu-47" value="" style="shape=umlActor;verticalLabelPosition=bottom;verticalAlign=top;html=1;outlineConnect=0;fillColor=#dae8fc;strokeColor=#6c8ebf;" vertex="1" parent="gFP8oRgVTRER96iRmuCu-44">
          <mxGeometry x="36" y="20" width="20" height="30" as="geometry" />
        </mxCell>
        <mxCell id="gFP8oRgVTRER96iRmuCu-48" value="CDI Specialists" style="text;html=1;strokeColor=none;fillColor=none;align=center;verticalAlign=middle;whiteSpace=wrap;rounded=0;" vertex="1" parent="gFP8oRgVTRER96iRmuCu-43">
          <mxGeometry y="50" width="60" height="30" as="geometry" />
        </mxCell>
        <mxCell id="gFP8oRgVTRER96iRmuCu-49" value="" style="group" vertex="1" connectable="0" parent="1">
          <mxGeometry x="520" y="330" width="60" height="80" as="geometry" />
        </mxCell>
        <mxCell id="gFP8oRgVTRER96iRmuCu-50" value="" style="group" vertex="1" connectable="0" parent="gFP8oRgVTRER96iRmuCu-49">
          <mxGeometry width="56" height="50" as="geometry" />
        </mxCell>
        <mxCell id="gFP8oRgVTRER96iRmuCu-51" value="" style="shape=umlActor;verticalLabelPosition=bottom;verticalAlign=top;html=1;outlineConnect=0;fillColor=#d5e8d4;strokeColor=#82b366;" vertex="1" parent="gFP8oRgVTRER96iRmuCu-50">
          <mxGeometry width="20" height="30" as="geometry" />
        </mxCell>
        <mxCell id="gFP8oRgVTRER96iRmuCu-52" value="" style="shape=umlActor;verticalLabelPosition=bottom;verticalAlign=top;html=1;outlineConnect=0;fillColor=#d5e8d4;strokeColor=#82b366;" vertex="1" parent="gFP8oRgVTRER96iRmuCu-50">
          <mxGeometry x="19" y="10" width="20" height="30" as="geometry" />
        </mxCell>
        <mxCell id="gFP8oRgVTRER96iRmuCu-53" value="" style="shape=umlActor;verticalLabelPosition=bottom;verticalAlign=top;html=1;outlineConnect=0;fillColor=#d5e8d4;strokeColor=#82b366;" vertex="1" parent="gFP8oRgVTRER96iRmuCu-50">
          <mxGeometry x="36" y="20" width="20" height="30" as="geometry" />
        </mxCell>
        <mxCell id="gFP8oRgVTRER96iRmuCu-54" value="MDM Specialists" style="text;html=1;strokeColor=none;fillColor=none;align=center;verticalAlign=middle;whiteSpace=wrap;rounded=0;" vertex="1" parent="gFP8oRgVTRER96iRmuCu-49">
          <mxGeometry y="50" width="60" height="30" as="geometry" />
        </mxCell>
        <mxCell id="gFP8oRgVTRER96iRmuCu-55" value="" style="group" vertex="1" connectable="0" parent="1">
          <mxGeometry x="640" y="330" width="220" height="170" as="geometry" />
        </mxCell>
        <mxCell id="gFP8oRgVTRER96iRmuCu-56" value="" style="group" vertex="1" connectable="0" parent="gFP8oRgVTRER96iRmuCu-55">
          <mxGeometry width="56" height="50" as="geometry" />
        </mxCell>
        <mxCell id="gFP8oRgVTRER96iRmuCu-57" value="" style="shape=umlActor;verticalLabelPosition=bottom;verticalAlign=top;html=1;outlineConnect=0;fillColor=#1ba1e2;strokeColor=#006EAF;fontColor=#ffffff;" vertex="1" parent="gFP8oRgVTRER96iRmuCu-56">
          <mxGeometry width="20" height="30" as="geometry" />
        </mxCell>
        <mxCell id="gFP8oRgVTRER96iRmuCu-58" value="" style="shape=umlActor;verticalLabelPosition=bottom;verticalAlign=top;html=1;outlineConnect=0;fillColor=#1ba1e2;strokeColor=#006EAF;fontColor=#ffffff;" vertex="1" parent="gFP8oRgVTRER96iRmuCu-56">
          <mxGeometry x="19" y="10" width="20" height="30" as="geometry" />
        </mxCell>
        <mxCell id="gFP8oRgVTRER96iRmuCu-60" value="Migration Specialists" style="text;html=1;strokeColor=none;fillColor=none;align=center;verticalAlign=middle;whiteSpace=wrap;rounded=0;" vertex="1" parent="gFP8oRgVTRER96iRmuCu-55">
          <mxGeometry y="50" width="60" height="30" as="geometry" />
        </mxCell>
        <mxCell id="gFP8oRgVTRER96iRmuCu-61" value="" style="group" vertex="1" connectable="0" parent="1">
          <mxGeometry x="740" y="330" width="60" height="80" as="geometry" />
        </mxCell>
        <mxCell id="gFP8oRgVTRER96iRmuCu-62" value="" style="group" vertex="1" connectable="0" parent="gFP8oRgVTRER96iRmuCu-61">
          <mxGeometry width="56" height="50" as="geometry" />
        </mxCell>
        <mxCell id="gFP8oRgVTRER96iRmuCu-63" value="" style="shape=umlActor;verticalLabelPosition=bottom;verticalAlign=top;html=1;outlineConnect=0;fillColor=#d80073;strokeColor=#A50040;fontColor=#ffffff;" vertex="1" parent="gFP8oRgVTRER96iRmuCu-62">
          <mxGeometry width="20" height="30" as="geometry" />
        </mxCell>
        <mxCell id="gFP8oRgVTRER96iRmuCu-64" value="" style="shape=umlActor;verticalLabelPosition=bottom;verticalAlign=top;html=1;outlineConnect=0;fillColor=#d80073;strokeColor=#A50040;fontColor=#ffffff;" vertex="1" parent="gFP8oRgVTRER96iRmuCu-62">
          <mxGeometry x="19" y="10" width="20" height="30" as="geometry" />
        </mxCell>
        <mxCell id="gFP8oRgVTRER96iRmuCu-65" value="" style="shape=umlActor;verticalLabelPosition=bottom;verticalAlign=top;html=1;outlineConnect=0;fillColor=#d80073;strokeColor=#A50040;fontColor=#ffffff;" vertex="1" parent="gFP8oRgVTRER96iRmuCu-62">
          <mxGeometry x="36" y="20" width="20" height="30" as="geometry" />
        </mxCell>
        <mxCell id="gFP8oRgVTRER96iRmuCu-66" value="Test and QA" style="text;html=1;strokeColor=none;fillColor=none;align=center;verticalAlign=middle;whiteSpace=wrap;rounded=0;" vertex="1" parent="gFP8oRgVTRER96iRmuCu-61">
          <mxGeometry y="50" width="60" height="30" as="geometry" />
        </mxCell>
        <mxCell id="gFP8oRgVTRER96iRmuCu-10" value="" style="rounded=1;whiteSpace=wrap;html=1;fillColor=none;sketch=1;curveFitting=1;jiggle=2;shadow=1;glass=1;" vertex="1" parent="1">
          <mxGeometry x="85" y="20" width="1015" height="480" as="geometry" />
        </mxCell>
        <mxCell id="9kzjjH1bRcHk7Z0w_79C-1" value="Sales Lead" style="shape=umlActor;verticalLabelPosition=bottom;verticalAlign=top;html=1;outlineConnect=0;fillColor=#f5f5f5;fontColor=#333333;strokeColor=#666666;" vertex="1" parent="1">
          <mxGeometry x="680" y="90" width="30" height="60" as="geometry" />
        </mxCell>
        <mxCell id="llGlC6vn6_8WmVwevJTp-1" value="DevOps Engg" style="shape=umlActor;verticalLabelPosition=bottom;verticalAlign=top;html=1;outlineConnect=0;fillColor=#ffe6cc;strokeColor=#d79b00;" vertex="1" parent="1">
          <mxGeometry x="755" y="210" width="30" height="60" as="geometry" />
        </mxCell>
        <mxCell id="llGlC6vn6_8WmVwevJTp-2" value="Analytics/&lt;br&gt;Reporting" style="shape=umlActor;verticalLabelPosition=bottom;verticalAlign=top;html=1;outlineConnect=0;fillColor=#ffe6cc;strokeColor=#d79b00;" vertex="1" parent="1">
          <mxGeometry x="850" y="210" width="30" height="60" as="geometry" />
        </mxCell>
        <mxCell id="bxry-XjI54zwO9HeJ4ow-1" value="&lt;font color=&quot;#000000&quot;&gt;DG Lead&lt;/font&gt;" style="shape=umlActor;verticalLabelPosition=bottom;verticalAlign=top;html=1;outlineConnect=0;fillColor=#a20025;strokeColor=#6F0000;fontColor=#ffffff;" vertex="1" parent="1">
          <mxGeometry x="960" y="210" width="30" height="60" as="geometry" />
        </mxCell>
        <mxCell id="bxry-XjI54zwO9HeJ4ow-4" value="" style="shape=umlActor;verticalLabelPosition=bottom;verticalAlign=top;html=1;outlineConnect=0;fillColor=#a20025;strokeColor=#6F0000;fontColor=#ffffff;" vertex="1" parent="1">
          <mxGeometry x="939" y="324" width="20" height="30" as="geometry" />
        </mxCell>
        <mxCell id="bxry-XjI54zwO9HeJ4ow-5" value="" style="shape=umlActor;verticalLabelPosition=bottom;verticalAlign=top;html=1;outlineConnect=0;fillColor=#a20025;strokeColor=#6F0000;fontColor=#ffffff;" vertex="1" parent="1">
          <mxGeometry x="949" y="334" width="20" height="30" as="geometry" />
        </mxCell>
        <mxCell id="bxry-XjI54zwO9HeJ4ow-6" value="" style="shape=umlActor;verticalLabelPosition=bottom;verticalAlign=top;html=1;outlineConnect=0;fillColor=#a20025;strokeColor=#6F0000;fontColor=#ffffff;" vertex="1" parent="1">
          <mxGeometry x="960" y="340" width="20" height="30" as="geometry" />
        </mxCell>
        <mxCell id="bxry-XjI54zwO9HeJ4ow-9" value="DG Specialists" style="text;html=1;strokeColor=none;fillColor=none;align=center;verticalAlign=middle;whiteSpace=wrap;rounded=0;" vertex="1" parent="1">
          <mxGeometry x="939" y="384" width="60" height="30" as="geometry" />
        </mxCell>
      </root>
    </mxGraphModel>
  </diagram>
  <diagram id="u7udRK5OecsQ3eWhJsPl" name="Preslaes">
    <mxGraphModel dx="1434" dy="739" grid="1" gridSize="10" guides="1" tooltips="1" connect="1" arrows="1" fold="1" page="1" pageScale="1" pageWidth="1100" pageHeight="850" math="0" shadow="0">
      <root>
        <mxCell id="0" />
        <mxCell id="1" parent="0" />
        <mxCell id="aprmsSjTGSTrnVSDrUsF-1" value="Sales Lead" style="shape=umlActor;verticalLabelPosition=bottom;verticalAlign=top;html=1;outlineConnect=0;" vertex="1" parent="1">
          <mxGeometry x="350" y="200" width="30" height="60" as="geometry" />
        </mxCell>
        <mxCell id="j14ffGpdtFu3CE-EkApN-1" value="MDM Architect" style="shape=umlActor;verticalLabelPosition=bottom;verticalAlign=top;html=1;outlineConnect=0;fillColor=#d5e8d4;strokeColor=#82b366;" vertex="1" parent="1">
          <mxGeometry x="500" y="120" width="30" height="60" as="geometry" />
        </mxCell>
        <mxCell id="j14ffGpdtFu3CE-EkApN-2" value="Alliance Manager" style="shape=umlActor;verticalLabelPosition=bottom;verticalAlign=top;html=1;outlineConnect=0;fillColor=#d5e8d4;strokeColor=#82b366;" vertex="1" parent="1">
          <mxGeometry x="500" y="250" width="30" height="60" as="geometry" />
        </mxCell>
        <mxCell id="kqW7jnf8MLZUJyzAg4_c-1" value="" style="group" vertex="1" connectable="0" parent="1">
          <mxGeometry x="636" y="185" width="60" height="80" as="geometry" />
        </mxCell>
        <mxCell id="kqW7jnf8MLZUJyzAg4_c-2" value="" style="group" vertex="1" connectable="0" parent="kqW7jnf8MLZUJyzAg4_c-1">
          <mxGeometry width="56" height="50" as="geometry" />
        </mxCell>
        <mxCell id="kqW7jnf8MLZUJyzAg4_c-3" value="" style="shape=umlActor;verticalLabelPosition=bottom;verticalAlign=top;html=1;outlineConnect=0;" vertex="1" parent="kqW7jnf8MLZUJyzAg4_c-2">
          <mxGeometry width="20" height="30" as="geometry" />
        </mxCell>
        <mxCell id="kqW7jnf8MLZUJyzAg4_c-4" value="" style="shape=umlActor;verticalLabelPosition=bottom;verticalAlign=top;html=1;outlineConnect=0;" vertex="1" parent="kqW7jnf8MLZUJyzAg4_c-2">
          <mxGeometry x="19" y="10" width="20" height="30" as="geometry" />
        </mxCell>
        <mxCell id="kqW7jnf8MLZUJyzAg4_c-5" value="" style="shape=umlActor;verticalLabelPosition=bottom;verticalAlign=top;html=1;outlineConnect=0;" vertex="1" parent="kqW7jnf8MLZUJyzAg4_c-2">
          <mxGeometry x="36" y="20" width="20" height="30" as="geometry" />
        </mxCell>
        <mxCell id="kqW7jnf8MLZUJyzAg4_c-6" value="Bid team" style="text;html=1;strokeColor=none;fillColor=none;align=center;verticalAlign=middle;whiteSpace=wrap;rounded=0;" vertex="1" parent="kqW7jnf8MLZUJyzAg4_c-1">
          <mxGeometry x="24" y="65" width="60" height="30" as="geometry" />
        </mxCell>
        <mxCell id="kqW7jnf8MLZUJyzAg4_c-7" value="" style="shape=umlActor;verticalLabelPosition=bottom;verticalAlign=top;html=1;outlineConnect=0;" vertex="1" parent="1">
          <mxGeometry x="696" y="200" width="20" height="30" as="geometry" />
        </mxCell>
        <mxCell id="kqW7jnf8MLZUJyzAg4_c-8" value="" style="shape=umlActor;verticalLabelPosition=bottom;verticalAlign=top;html=1;outlineConnect=0;" vertex="1" parent="1">
          <mxGeometry x="706" y="210" width="20" height="30" as="geometry" />
        </mxCell>
        <mxCell id="kL9jUedaYsaL_3R8sOhY-1" value="Scrum Master" style="shape=umlActor;verticalLabelPosition=bottom;verticalAlign=top;html=1;outlineConnect=0;" vertex="1" parent="1">
          <mxGeometry x="560" y="190" width="30" height="60" as="geometry" />
        </mxCell>
      </root>
    </mxGraphModel>
  </diagram>
  <diagram id="ce4MwDQF4yYcLJPle7MQ" name="Technology and Learning Team">
    <mxGraphModel dx="1434" dy="739" grid="1" gridSize="10" guides="1" tooltips="1" connect="1" arrows="1" fold="1" page="1" pageScale="1" pageWidth="1100" pageHeight="850" math="0" shadow="0">
      <root>
        <mxCell id="0" />
        <mxCell id="1" parent="0" />
        <mxCell id="2Up0Kgfg5cFZgtf3gcSt-1" value="Alliance Partner" style="shape=umlActor;verticalLabelPosition=bottom;verticalAlign=top;html=1;outlineConnect=0;" vertex="1" parent="1">
          <mxGeometry x="470" y="260" width="30" height="60" as="geometry" />
        </mxCell>
        <mxCell id="2Up0Kgfg5cFZgtf3gcSt-2" value="MDM Architect" style="shape=umlActor;verticalLabelPosition=bottom;verticalAlign=top;html=1;outlineConnect=0;fillColor=#d5e8d4;strokeColor=#82b366;" vertex="1" parent="1">
          <mxGeometry x="470" y="120" width="30" height="60" as="geometry" />
        </mxCell>
        <mxCell id="G5LalVPWso7PBPTsfhhj-1" value="Learning Manager" style="shape=umlActor;verticalLabelPosition=bottom;verticalAlign=top;html=1;outlineConnect=0;fillColor=#d5e8d4;strokeColor=#82b366;" vertex="1" parent="1">
          <mxGeometry x="300" y="210" width="30" height="60" as="geometry" />
        </mxCell>
        <mxCell id="5aUG_T6JjU1ZAgh8hLS--1" value="CAI :Lead" style="shape=umlActor;verticalLabelPosition=bottom;verticalAlign=top;html=1;outlineConnect=0;fillColor=#ffe6cc;strokeColor=#d79b00;" vertex="1" parent="1">
          <mxGeometry x="730" y="110" width="30" height="60" as="geometry" />
        </mxCell>
        <mxCell id="5aUG_T6JjU1ZAgh8hLS--2" value="CDI Lead" style="shape=umlActor;verticalLabelPosition=bottom;verticalAlign=top;html=1;outlineConnect=0;fillColor=#dae8fc;strokeColor=#6c8ebf;" vertex="1" parent="1">
          <mxGeometry x="640" y="330" width="30" height="60" as="geometry" />
        </mxCell>
        <mxCell id="5aUG_T6JjU1ZAgh8hLS--3" value="MDM Lead" style="shape=umlActor;verticalLabelPosition=bottom;verticalAlign=top;html=1;outlineConnect=0;fillColor=#d5e8d4;strokeColor=#82b366;" vertex="1" parent="1">
          <mxGeometry x="740" y="270" width="30" height="60" as="geometry" />
        </mxCell>
        <mxCell id="5aUG_T6JjU1ZAgh8hLS--4" value="&lt;font color=&quot;#000000&quot;&gt;Migration Lead&lt;/font&gt;" style="shape=umlActor;verticalLabelPosition=bottom;verticalAlign=top;html=1;outlineConnect=0;fillColor=#1ba1e2;fontColor=#ffffff;strokeColor=#006EAF;" vertex="1" parent="1">
          <mxGeometry x="640" y="100" width="30" height="60" as="geometry" />
        </mxCell>
        <mxCell id="5aUG_T6JjU1ZAgh8hLS--5" value="&lt;font color=&quot;#000000&quot;&gt;MDM Test Lead&lt;/font&gt;" style="shape=umlActor;verticalLabelPosition=bottom;verticalAlign=top;html=1;outlineConnect=0;fillColor=#d80073;fontColor=#ffffff;strokeColor=#A50040;" vertex="1" parent="1">
          <mxGeometry x="640" y="210" width="30" height="60" as="geometry" />
        </mxCell>
      </root>
    </mxGraphModel>
  </diagram>
  <diagram id="4Zy6c-0Ahob_y94mDKXS" name="Factory Model">
    <mxGraphModel dx="1434" dy="739" grid="1" gridSize="10" guides="1" tooltips="1" connect="1" arrows="1" fold="1" page="1" pageScale="1" pageWidth="1100" pageHeight="850" math="0" shadow="0">
      <root>
        <mxCell id="0" />
        <mxCell id="1" parent="0" />
        <mxCell id="lW8v09odr8YaCjFCr077-1" value="" style="rounded=1;whiteSpace=wrap;html=1;arcSize=50;" vertex="1" parent="1">
          <mxGeometry x="60" y="243" width="960" height="60" as="geometry" />
        </mxCell>
        <mxCell id="lW8v09odr8YaCjFCr077-2" value="" style="rounded=1;whiteSpace=wrap;html=1;arcSize=50;" vertex="1" parent="1">
          <mxGeometry x="70" y="250" width="950" height="70" as="geometry" />
        </mxCell>
        <mxCell id="lW8v09odr8YaCjFCr077-3" value="" style="ellipse;whiteSpace=wrap;html=1;aspect=fixed;fillColor=#f5f5f5;fontColor=#333333;strokeColor=#666666;" vertex="1" parent="1">
          <mxGeometry x="74" y="253.5" width="65" height="65" as="geometry" />
        </mxCell>
        <mxCell id="lW8v09odr8YaCjFCr077-4" value="" style="ellipse;whiteSpace=wrap;html=1;aspect=fixed;fillColor=#f5f5f5;fontColor=#333333;strokeColor=#666666;" vertex="1" parent="1">
          <mxGeometry x="180" y="252.5" width="65" height="65" as="geometry" />
        </mxCell>
        <mxCell id="lW8v09odr8YaCjFCr077-5" value="" style="ellipse;whiteSpace=wrap;html=1;aspect=fixed;fillColor=#f5f5f5;fontColor=#333333;strokeColor=#666666;" vertex="1" parent="1">
          <mxGeometry x="295" y="252.5" width="65" height="65" as="geometry" />
        </mxCell>
        <mxCell id="lW8v09odr8YaCjFCr077-6" value="" style="ellipse;whiteSpace=wrap;html=1;aspect=fixed;fillColor=#f5f5f5;fontColor=#333333;strokeColor=#666666;" vertex="1" parent="1">
          <mxGeometry x="390" y="252.5" width="65" height="65" as="geometry" />
        </mxCell>
        <mxCell id="lW8v09odr8YaCjFCr077-7" value="" style="ellipse;whiteSpace=wrap;html=1;aspect=fixed;fillColor=#f5f5f5;fontColor=#333333;strokeColor=#666666;" vertex="1" parent="1">
          <mxGeometry x="510" y="252.5" width="65" height="65" as="geometry" />
        </mxCell>
        <mxCell id="lW8v09odr8YaCjFCr077-8" value="" style="ellipse;whiteSpace=wrap;html=1;aspect=fixed;fillColor=#f5f5f5;fontColor=#333333;strokeColor=#666666;" vertex="1" parent="1">
          <mxGeometry x="610" y="252.5" width="65" height="65" as="geometry" />
        </mxCell>
        <mxCell id="lW8v09odr8YaCjFCr077-9" value="" style="ellipse;whiteSpace=wrap;html=1;aspect=fixed;fillColor=#f5f5f5;fontColor=#333333;strokeColor=#666666;" vertex="1" parent="1">
          <mxGeometry x="700" y="254" width="65" height="65" as="geometry" />
        </mxCell>
        <mxCell id="lW8v09odr8YaCjFCr077-10" value="Project Initiation" style="rounded=0;whiteSpace=wrap;html=1;" vertex="1" parent="1">
          <mxGeometry x="80" y="170" width="100" height="40" as="geometry" />
        </mxCell>
        <mxCell id="lW8v09odr8YaCjFCr077-11" value="Planning and Design" style="rounded=0;whiteSpace=wrap;html=1;" vertex="1" parent="1">
          <mxGeometry x="240" y="170" width="120" height="40" as="geometry" />
        </mxCell>
        <mxCell id="lW8v09odr8YaCjFCr077-12" value="Development" style="rounded=0;whiteSpace=wrap;html=1;" vertex="1" parent="1">
          <mxGeometry x="424" y="170" width="90" height="40" as="geometry" />
        </mxCell>
        <mxCell id="lW8v09odr8YaCjFCr077-13" value="Quality Assurance" style="rounded=0;whiteSpace=wrap;html=1;" vertex="1" parent="1">
          <mxGeometry x="575" y="170" width="90" height="40" as="geometry" />
        </mxCell>
        <mxCell id="lW8v09odr8YaCjFCr077-14" value="Maintenance and Support" style="rounded=0;whiteSpace=wrap;html=1;" vertex="1" parent="1">
          <mxGeometry x="907" y="170" width="90" height="40" as="geometry" />
        </mxCell>
        <mxCell id="lW8v09odr8YaCjFCr077-16" value="Deployment and Delivery" style="rounded=0;whiteSpace=wrap;html=1;" vertex="1" parent="1">
          <mxGeometry x="740" y="170" width="90" height="40" as="geometry" />
        </mxCell>
        <mxCell id="lW8v09odr8YaCjFCr077-17" value="" style="ellipse;whiteSpace=wrap;html=1;aspect=fixed;fillColor=#f5f5f5;fontColor=#333333;strokeColor=#666666;" vertex="1" parent="1">
          <mxGeometry x="842" y="252.5" width="68" height="68" as="geometry" />
        </mxCell>
        <mxCell id="lW8v09odr8YaCjFCr077-20" value="" style="shape=parallelogram;perimeter=parallelogramPerimeter;whiteSpace=wrap;html=1;fixedSize=1;size=20;direction=west;fillColor=#f5f5f5;fontColor=#333333;strokeColor=#666666;" vertex="1" parent="1">
          <mxGeometry x="74" y="233.5" width="926" height="20" as="geometry" />
        </mxCell>
        <mxCell id="lW8v09odr8YaCjFCr077-23" value="" style="shape=flexArrow;endArrow=classic;html=1;rounded=0;endWidth=22;endSize=7.36;width=18;fillColor=#ffe6cc;strokeColor=#d79b00;" edge="1" parent="1">
          <mxGeometry width="50" height="50" relative="1" as="geometry">
            <mxPoint x="187" y="189.5" as="sourcePoint" />
            <mxPoint x="237" y="190" as="targetPoint" />
          </mxGeometry>
        </mxCell>
        <mxCell id="lW8v09odr8YaCjFCr077-24" value="" style="shape=flexArrow;endArrow=classic;html=1;rounded=0;endWidth=22;endSize=7.36;width=18;fillColor=#ffe6cc;strokeColor=#d79b00;" edge="1" parent="1">
          <mxGeometry width="50" height="50" relative="1" as="geometry">
            <mxPoint x="370" y="189.5" as="sourcePoint" />
            <mxPoint x="420" y="190" as="targetPoint" />
          </mxGeometry>
        </mxCell>
        <mxCell id="lW8v09odr8YaCjFCr077-25" value="" style="shape=flexArrow;endArrow=classic;html=1;rounded=0;endWidth=22;endSize=7.36;width=18;fillColor=#ffe6cc;strokeColor=#d79b00;" edge="1" parent="1">
          <mxGeometry width="50" height="50" relative="1" as="geometry">
            <mxPoint x="517.5" y="190" as="sourcePoint" />
            <mxPoint x="567.5" y="190.5" as="targetPoint" />
          </mxGeometry>
        </mxCell>
        <mxCell id="lW8v09odr8YaCjFCr077-26" value="" style="shape=flexArrow;endArrow=classic;html=1;rounded=0;endWidth=22;endSize=7.36;width=18;fillColor=#ffe6cc;strokeColor=#d79b00;" edge="1" parent="1">
          <mxGeometry width="50" height="50" relative="1" as="geometry">
            <mxPoint x="680" y="189.5" as="sourcePoint" />
            <mxPoint x="730" y="190" as="targetPoint" />
          </mxGeometry>
        </mxCell>
        <mxCell id="lW8v09odr8YaCjFCr077-27" value="" style="shape=flexArrow;endArrow=classic;html=1;rounded=0;endWidth=22;endSize=7.36;width=18;fillColor=#ffe6cc;strokeColor=#d79b00;" edge="1" parent="1">
          <mxGeometry width="50" height="50" relative="1" as="geometry">
            <mxPoint x="840" y="189.5" as="sourcePoint" />
            <mxPoint x="890" y="190" as="targetPoint" />
          </mxGeometry>
        </mxCell>
        <mxCell id="lW8v09odr8YaCjFCr077-29" value="" style="endArrow=classic;html=1;rounded=0;dashed=1;dashPattern=12 12;" edge="1" parent="1">
          <mxGeometry width="50" height="50" relative="1" as="geometry">
            <mxPoint x="220" y="243" as="sourcePoint" />
            <mxPoint x="310" y="243" as="targetPoint" />
          </mxGeometry>
        </mxCell>
        <mxCell id="lW8v09odr8YaCjFCr077-30" value="" style="endArrow=classic;html=1;rounded=0;dashed=1;dashPattern=12 12;" edge="1" parent="1">
          <mxGeometry width="50" height="50" relative="1" as="geometry">
            <mxPoint x="110" y="243" as="sourcePoint" />
            <mxPoint x="200" y="243" as="targetPoint" />
          </mxGeometry>
        </mxCell>
        <mxCell id="lW8v09odr8YaCjFCr077-31" value="" style="endArrow=classic;html=1;rounded=0;dashed=1;dashPattern=12 12;" edge="1" parent="1">
          <mxGeometry width="50" height="50" relative="1" as="geometry">
            <mxPoint x="429" y="244" as="sourcePoint" />
            <mxPoint x="519" y="244" as="targetPoint" />
          </mxGeometry>
        </mxCell>
        <mxCell id="lW8v09odr8YaCjFCr077-32" value="" style="endArrow=classic;html=1;rounded=0;dashed=1;dashPattern=12 12;" edge="1" parent="1">
          <mxGeometry width="50" height="50" relative="1" as="geometry">
            <mxPoint x="319" y="244" as="sourcePoint" />
            <mxPoint x="409" y="244" as="targetPoint" />
          </mxGeometry>
        </mxCell>
        <mxCell id="lW8v09odr8YaCjFCr077-33" value="" style="endArrow=classic;html=1;rounded=0;dashed=1;dashPattern=12 12;" edge="1" parent="1">
          <mxGeometry width="50" height="50" relative="1" as="geometry">
            <mxPoint x="665" y="244" as="sourcePoint" />
            <mxPoint x="755" y="244" as="targetPoint" />
          </mxGeometry>
        </mxCell>
        <mxCell id="lW8v09odr8YaCjFCr077-34" value="" style="endArrow=classic;html=1;rounded=0;dashed=1;dashPattern=12 12;" edge="1" parent="1">
          <mxGeometry width="50" height="50" relative="1" as="geometry">
            <mxPoint x="555" y="244" as="sourcePoint" />
            <mxPoint x="645" y="244" as="targetPoint" />
          </mxGeometry>
        </mxCell>
        <mxCell id="lW8v09odr8YaCjFCr077-35" value="" style="endArrow=classic;html=1;rounded=0;dashed=1;dashPattern=12 12;" edge="1" parent="1">
          <mxGeometry width="50" height="50" relative="1" as="geometry">
            <mxPoint x="882" y="245" as="sourcePoint" />
            <mxPoint x="972" y="245" as="targetPoint" />
          </mxGeometry>
        </mxCell>
        <mxCell id="lW8v09odr8YaCjFCr077-36" value="" style="endArrow=classic;html=1;rounded=0;dashed=1;dashPattern=12 12;" edge="1" parent="1">
          <mxGeometry width="50" height="50" relative="1" as="geometry">
            <mxPoint x="772" y="245" as="sourcePoint" />
            <mxPoint x="862" y="245" as="targetPoint" />
          </mxGeometry>
        </mxCell>
        <mxCell id="lW8v09odr8YaCjFCr077-37" value="" style="ellipse;whiteSpace=wrap;html=1;aspect=fixed;fillColor=#f5f5f5;fontColor=#333333;strokeColor=#666666;" vertex="1" parent="1">
          <mxGeometry x="948" y="251.5" width="68" height="68" as="geometry" />
        </mxCell>
      </root>
    </mxGraphModel>
  </diagram>
</mxfile>
